<!-- Created by Apktool M – https://maximoff.su/apktool -->
<svg xmlns="http://www.w3.org/2000/svg" xmlns:xlink="http://www.w3.org/1999/xlink" version="1.1" width="380.0" height="380.0" viewBox="41.999978 41.999978 295.99995 295.99995">
	<path fill="rgb(255,255,255)" fill-opacity="1.0" d="M63.0014 190C49.8954 174.339 42 154.126 42 132.06C42 82.321 82.1131 42 131.595 42C153.99 42 174.466 50.2594 190.173 63.9131C205.843 50.2594 226.271 42 248.614 42C297.981 42 338 82.321 338 132.06C338 154.126 330.123 174.339 317.048 190C330.123 205.661 338 225.874 338 247.94C338 297.679 297.981 338 248.614 338C226.271 338 205.843 329.741 190.173 316.087C174.466 329.741 153.99 338 131.595 338C82.1131 338 42 297.679 42 247.94C42 225.874 49.8954 205.661 63.0014 190Z"/>
</svg>
