<!-- Created by Apktool M – https://maximoff.su/apktool -->
<svg
	xmlns="http://www.w3.org/2000/svg"
	xmlns:xlink="http://www.w3.org/1999/xlink"
	version="1.1"
	width="31.0"
	height="32.0"
	viewBox="0 0 31.0 32.0">
	<path
		fill="rgb(255,255,255)"
		fill-opacity="1.0"
		d="M13.325 0.837c1.142-1.047 2.895-1.047 4.036 0l1.237 1.135c0.638 0.585 1.498 0.865 2.358 0.766l1.668-0.191c1.539-0.176 2.957 0.854 3.265 2.372l0.334 1.645c0.172 0.848 0.704 1.58 1.457 2.006l1.461 0.826c1.349 0.762 1.891 2.429 1.247 3.838l-0.697 1.527c-0.359 0.787-0.359 1.692 0 2.479l0.697 1.527c0.643 1.409 0.102 3.076-1.247 3.838l-1.461 0.826c-0.753 0.426-1.285 1.157-1.457 2.006l-0.334 1.645c-0.308 1.518-1.726 2.549-3.265 2.372l-1.668-0.191c-0.86-0.099-1.72 0.181-2.358 0.766l-1.237 1.135c-1.142 1.047-2.895 1.047-4.036 0l-1.237-1.135c-0.638-0.585-1.498-0.865-2.358-0.766l-1.668 0.191c-1.539 0.176-2.957-0.854-3.265-2.372l-0.334-1.645c-0.172-0.848-0.704-1.58-1.457-2.006l-1.461-0.826c-1.349-0.762-1.891-2.429-1.247-3.838l0.697-1.527c0.359-0.787 0.359-1.692 0-2.479l-0.697-1.527c-0.643-1.409-0.102-3.076 1.247-3.838l1.461-0.826c0.753-0.426 1.285-1.157 1.457-2.006l0.334-1.645c0.308-1.518 1.726-2.549 3.265-2.372l1.668 0.191c0.86 0.099 1.72-0.181 2.358-0.766l1.237-1.135z" />
</svg>