<!-- Created by Apktool M – https://maximoff.su/apktool -->
<svg
	xmlns="http://www.w3.org/2000/svg"
	xmlns:xlink="http://www.w3.org/1999/xlink"
	version="1.1"
	width="380.0"
	height="380.0"
	viewBox="0 0 380.0 380.0">
	<path transform="translate(-38.0774,-59.3448) scale(1.200406,1.319354)"
		fill="rgb(255,255,255)"
		fill-opacity="1.0"
		d="M136.461 98.2021C151.597 71.8217 159.165 58.6315 168.342 53.0594C181.648 44.9802 198.352 44.9802 211.658 53.0594C220.835 58.6315 228.403 71.8217 243.539 98.2021L325.309 240.72C340.3 266.847 347.795 279.911 347.993 290.585C348.28 306.06 339.949 320.418 326.364 327.864C316.994 333 301.919 333 271.77 333H108.23C78.0806 333 63.006 333 53.636 327.864C40.0505 320.418 31.7204 306.06 32.0072 290.585C32.2049 279.911 39.7003 266.847 54.6909 240.72L136.461 98.2021Z" />
</svg>