<!-- Created by Apktool M – https://maximoff.su/apktool -->
<svg
	xmlns="http://www.w3.org/2000/svg"
	xmlns:xlink="http://www.w3.org/1999/xlink"
	version="1.1"
	width="380.0"
	height="380.0"
	viewBox="0 0 380.0 380.0">
	<path transform="translate(-50.6667,-50.6667) scale(1.266667,1.266667)"
		fill="rgb(255,255,255)"
		fill-opacity="1.0"
		d="M40 182.857C40 103.959 107.157 40 190 40C272.843 40 340 103.959 340 182.857L340 282.857C340 314.416 313.137 340 280 340C270.178 340 260.907 337.752 252.724 333.768C248.554 331.737 244.394 329.512 240.216 327.277C225.513 319.411 210.592 311.429 194.27 311.429H185.73C169.408 311.429 154.487 319.411 139.784 327.277C135.606 329.512 131.446 331.737 127.276 333.768C119.093 337.752 109.822 340 100 340C66.8629 340 40 314.416 40 282.857L40 182.857Z" />
</svg>