<!-- Created by Apktool M – https://maximoff.su/apktool -->
<svg
	xmlns="http://www.w3.org/2000/svg"
	xmlns:xlink="http://www.w3.org/1999/xlink"
	version="1.1"
	width="375.0"
	height="375.0"
	viewBox="0 0 375.0 375.0">
	<path
		fill="rgb(255,255,255)"
		fill-opacity="1.0"
		name="path"
		d="M 90 0 L 285 0 C 300.797 0 316.319 4.159 330 12.058 C 343.681 19.956 355.044 31.319 362.942 45 C 370.841 58.681 375 74.203 375 90 L 375 285 C 375 300.797 370.841 316.319 362.942 330 C 355.044 343.681 343.681 355.044 330 362.942 C 316.319 370.841 300.797 375 285 375 L 90 375 C 66.14 375 43.232 365.511 26.36 348.64 C 9.489 331.768 0 308.86 0 285 L 0 90 C 0 66.14 9.489 43.232 26.36 26.36 C 43.232 9.489 66.14 0 90 0"
		stroke-width="1.0" />
</svg>