<!-- Created by Apktool M – https://maximoff.su/apktool -->
<svg
	xmlns="http://www.w3.org/2000/svg"
	xmlns:xlink="http://www.w3.org/1999/xlink"
	version="1.1"
	width="380.0"
	height="380.0"
	viewBox="0 0 380.0 380.0">
	<path transform="translate(-42.9032,-42.9032) scale(1.225806,1.225806)"
		fill="rgb(255,255,255)"
		fill-opacity="1.0"
		d="M345 293.727C345 299.96 345 303.076 344.689 305.696C342.259 326.14 326.14 342.259 305.696 344.689C303.076 345 299.96 345 293.727 345H86.2732C80.0405 345 76.9242 345 74.3043 344.689C53.8596 342.259 37.7407 326.14 35.3113 305.696C35 303.076 35 299.96 35 293.727L35 190C35 104.396 104.396 35 190 35C275.604 35 345 104.396 345 190V293.727Z" />
</svg>