<!-- Created by Apktool M – https://maximoff.su/apktool -->
<svg
	xmlns="http://www.w3.org/2000/svg"
	xmlns:xlink="http://www.w3.org/1999/xlink"
	version="1.1"
	width="380.0"
	height="380.0"
	viewBox="0 0 380.0 380.0">
	<path transform="translate(-50.6667,-50.6667) scale(1.266667,1.266667)"
		fill="rgb(255,255,255)"
		fill-opacity="1.0"
		d="M40 87.3684C40 85.697 40 84.8613 40.0219 84.1547C40.7686 60.0969 60.0969 40.7686 84.1547 40.0219C84.8613 40 85.697 40 87.3684 40C96.2825 40 100.74 40 104.508 40.117C232.816 44.0992 335.901 147.184 339.883 275.492C340 279.26 340 283.717 340 292.632C340 294.303 340 295.139 339.978 295.845C339.231 319.903 319.903 339.231 295.845 339.978C295.139 340 294.303 340 292.632 340H107.441C87.0642 340 76.8757 340 68.7935 336.8C57.0947 332.168 47.8318 322.905 43.2 311.207C40 303.124 40 292.936 40 272.559V87.3684Z" />
</svg>