<!-- Created by Apktool M – https://maximoff.su/apktool -->
<svg xmlns="http://www.w3.org/2000/svg" xmlns:xlink="http://www.w3.org/1999/xlink" version="1.1" width="380.0" height="380.0" viewBox="33.857779 24.47817 312.284277 331.043903">
	<path fill="rgb(255,255,255)" fill-opacity="1.0" d="M134.186 54.5654C165.276 24.4782 214.724 24.4782 245.814 54.5654C255.328 63.7718 266.984 70.4811 279.738 74.0919C321.419 85.8924 346.142 128.586 335.552 170.473C332.312 183.291 332.312 196.709 335.552 209.527C346.142 251.414 321.419 294.108 279.738 305.908C266.984 309.519 255.328 316.228 245.814 325.435C214.724 355.522 165.276 355.522 134.186 325.435C124.672 316.228 113.016 309.519 100.262 305.908C58.5815 294.108 33.8578 251.414 44.4476 209.527C47.6879 196.709 47.6879 183.291 44.4476 170.473C33.8578 128.586 58.5815 85.8924 100.262 74.0919C113.016 70.4811 124.672 63.7718 134.186 54.5654Z"/>
</svg>
