<!-- Created by Apktool M – https://maximoff.su/apktool -->
<svg
	xmlns="http://www.w3.org/2000/svg"
	xmlns:xlink="http://www.w3.org/1999/xlink"
	version="1.1"
	width="380.0"
	height="380.0"
	viewBox="0 0 380.0 380.0">
	<path transform="translate(-35.6250,-35.6250) scale(1.187500,1.187500)"
		fill="rgb(255,255,255)"
		fill-opacity="1.0"
		d="M350 202C350 246.717 350 269.076 342.978 286.812C332.813 312.485 312.485 332.813 286.812 342.978C269.076 350 246.717 350 202 350H178C133.283 350 110.924 350 93.1875 342.978C67.5145 332.813 47.187 312.485 37.0223 286.812C30 269.076 30 246.717 30 202L30 178C30 133.283 30 110.924 37.0224 93.1875C47.187 67.5145 67.5146 47.187 93.1876 37.0223C110.924 30 133.283 30 178 30L202 30C246.717 30 269.076 30 286.812 37.0224C312.485 47.187 332.813 67.5146 342.978 93.1876C350 110.924 350 133.283 350 178V202Z" />
</svg>